<?xml version="1.0" encoding="UTF-8" standalone="no"?>
<svg
   xmlns:dc="http://purl.org/dc/elements/1.1/"
   xmlns:cc="http://creativecommons.org/ns#"
   xmlns:rdf="http://www.w3.org/1999/02/22-rdf-syntax-ns#"
   xmlns:svg="http://www.w3.org/2000/svg"
   xmlns="http://www.w3.org/2000/svg"
   xmlns:sodipodi="http://sodipodi.sourceforge.net/DTD/sodipodi-0.dtd"
   xmlns:inkscape="http://www.inkscape.org/namespaces/inkscape"
   version="1.1"
   width="481.56735"
   height="107.34211"
   id="svg6"
   sodipodi:docname="logo.svg"
   inkscape:version="0.92.4 (5da689c313, 2019-01-14)">
  <metadata
     id="metadata12">
    <rdf:RDF>
      <cc:Work
         rdf:about="">
        <dc:format>image/svg+xml</dc:format>
        <dc:type
           rdf:resource="http://purl.org/dc/dcmitype/StillImage" />
        <dc:title></dc:title>
      </cc:Work>
    </rdf:RDF>
  </metadata>
  <defs
     id="defs10" />
  <sodipodi:namedview
     pagecolor="#ffffff"
     bordercolor="#666666"
     borderopacity="1"
     objecttolerance="10"
     gridtolerance="10"
     guidetolerance="10"
     inkscape:pageopacity="0"
     inkscape:pageshadow="2"
     inkscape:window-width="2560"
     inkscape:window-height="1017"
     id="namedview8"
     showgrid="false"
     inkscape:zoom="0.76"
     inkscape:cx="242.44211"
     inkscape:cy="52.30527"
     inkscape:window-x="-8"
     inkscape:window-y="-8"
     inkscape:window-maximized="1"
     inkscape:current-layer="svg6" />
  <path
     d="M 0,95.010423 H 7.4157213 V 43.236729 q 0,-10.281297 7.6549377,-18.114669 7.654938,-7.833371 17.702045,-7.833371 9.807889,0 17.702044,7.833371 7.535329,7.710974 7.535329,18.114669 v 51.773694 h 7.654939 V 43.236729 q 0,-10.526091 7.654938,-18.114669 7.654938,-7.833371 17.582435,-7.833371 10.047111,0 17.702051,7.833371 7.65493,7.833372 7.65493,18.114669 v 51.773694 h 7.41572 V 43.236729 q 0,-13.953191 -9.56867,-23.744904 -9.56867,-9.7917132 -23.204031,-9.7917132 -8.97063,0 -16.864785,5.0182522 -8.013763,5.14065 -11.482407,13.096417 -4.664728,-8.20056 -12.558883,-13.096417 -8.25298,-5.0182522 -17.22361,-5.0182522 -13.51575,0 -23.0844227,9.7917132 Q 0,29.405935 0,43.236729 Z M 209.05636,9.4553186 h -7.53533 V 61.718588 q 0,11.260476 -7.65494,18.849058 -7.53533,7.343786 -17.94126,7.343786 -11.3628,0 -18.30009,-7.343786 -7.05689,-7.466192 -7.05689,-18.849058 V 9.4553186 h -7.65494 V 61.718588 q 0,13.953195 9.32945,23.744905 9.44907,10.036512 23.68247,10.036512 13.27653,0 23.32364,-10.036512 9.80789,-9.79171 9.80789,-23.744905 z m 37.77712,9.0573354 h 45.09237 V 9.2105263 h -45.09237 q -8.85103,0 -14.83145,7.0989917 -6.10002,7.221389 -6.10002,17.502688 0,9.302128 6.10002,16.156327 5.98042,6.976599 14.83145,6.976599 h 11.96084 12.20006 q 5.38237,0 9.56867,4.651059 3.94708,4.895863 3.94708,10.648494 0,6.854196 -3.88728,11.138078 -3.88727,4.283874 -9.62847,4.283874 h -45.09237 v 7.588573 h 45.09237 q 8.97063,0 14.95105,-6.364611 5.98042,-6.364613 5.98042,-16.645914 0,-9.302126 -5.98042,-16.15633 -6.10003,-6.854201 -14.95105,-6.854201 h -12.20006 -11.96084 q -5.50199,0 -9.44907,-4.895856 -4.06668,-4.528669 -4.06668,-10.526092 0,-6.8542 3.88727,-11.076876 3.88727,-4.222676 9.62848,-4.222676 z m 63.97136,76.864949 h 7.53533 V 9.3329225 h -7.53533 z m 36.34182,-78.333707 h 57.05321 V 9.4553186 H 339.73093 V 10.924076 95.25521 h 7.41573 V 57.06753 h 30.26092 V 49.111758 H 347.14666 Z M 481.56737,9.5777149 h -7.41572 V 18.63505 q 0,11.26047 -7.65494,18.849048 -7.53533,7.343785 -17.94126,7.343785 -11.12358,0 -18.30009,-7.343785 -7.1765,-7.343785 -7.1765,-18.849048 V 9.5777149 h -7.41572 V 18.63505 q 0,13.708399 8.13337,23.25532 8.01376,9.669318 20.33343,10.526092 v 42.961141 h 7.53533 V 52.416462 q 12.55888,-0.97917 21.17068,-10.526092 8.73142,-9.546921 8.73142,-23.25532 z"
     id="path2"
     style="fill:#ffffff;fill-opacity:1;stroke-width:1.20994377"
     inkscape:connector-curvature="0" />
  <path
     fill="#"
     d=""
     id="path4"
     inkscape:connector-curvature="0" />
</svg>
